<svg id="visual" viewBox="0 0 900 675" width="900" height="675" xmlns="http://www.w3.org/2000/svg" xmlns:xlink="http://www.w3.org/1999/xlink" version="1.1"><rect x="0" y="0" width="900" height="675" fill="#000000"></rect><defs><linearGradient id="grad1_0" x1="25%" y1="100%" x2="100%" y2="0%"><stop offset="23.333333333333336%" stop-color="#00bdff" stop-opacity="1"></stop><stop offset="76.66666666666666%" stop-color="#00bdff" stop-opacity="1"></stop></linearGradient></defs><defs><linearGradient id="grad1_1" x1="25%" y1="100%" x2="100%" y2="0%"><stop offset="23.333333333333336%" stop-color="#00bdff" stop-opacity="1"></stop><stop offset="76.66666666666666%" stop-color="#00a1e1" stop-opacity="1"></stop></linearGradient></defs><defs><linearGradient id="grad1_2" x1="25%" y1="100%" x2="100%" y2="0%"><stop offset="23.333333333333336%" stop-color="#0086c4" stop-opacity="1"></stop><stop offset="76.66666666666666%" stop-color="#00a1e1" stop-opacity="1"></stop></linearGradient></defs><defs><linearGradient id="grad1_3" x1="25%" y1="100%" x2="100%" y2="0%"><stop offset="23.333333333333336%" stop-color="#0086c4" stop-opacity="1"></stop><stop offset="76.66666666666666%" stop-color="#006ca8" stop-opacity="1"></stop></linearGradient></defs><defs><linearGradient id="grad1_4" x1="25%" y1="100%" x2="100%" y2="0%"><stop offset="23.333333333333336%" stop-color="#00538d" stop-opacity="1"></stop><stop offset="76.66666666666666%" stop-color="#006ca8" stop-opacity="1"></stop></linearGradient></defs><defs><linearGradient id="grad1_5" x1="25%" y1="100%" x2="100%" y2="0%"><stop offset="23.333333333333336%" stop-color="#00538d" stop-opacity="1"></stop><stop offset="76.66666666666666%" stop-color="#003c72" stop-opacity="1"></stop></linearGradient></defs><defs><linearGradient id="grad1_6" x1="25%" y1="100%" x2="100%" y2="0%"><stop offset="23.333333333333336%" stop-color="#002658" stop-opacity="1"></stop><stop offset="76.66666666666666%" stop-color="#003c72" stop-opacity="1"></stop></linearGradient></defs><defs><linearGradient id="grad1_7" x1="25%" y1="100%" x2="100%" y2="0%"><stop offset="23.333333333333336%" stop-color="#002658" stop-opacity="1"></stop><stop offset="76.66666666666666%" stop-color="#000000" stop-opacity="1"></stop></linearGradient></defs><defs><linearGradient id="grad2_0" x1="0%" y1="100%" x2="75%" y2="0%"><stop offset="23.333333333333336%" stop-color="#00bdff" stop-opacity="1"></stop><stop offset="76.66666666666666%" stop-color="#00bdff" stop-opacity="1"></stop></linearGradient></defs><defs><linearGradient id="grad2_1" x1="0%" y1="100%" x2="75%" y2="0%"><stop offset="23.333333333333336%" stop-color="#00a1e1" stop-opacity="1"></stop><stop offset="76.66666666666666%" stop-color="#00bdff" stop-opacity="1"></stop></linearGradient></defs><defs><linearGradient id="grad2_2" x1="0%" y1="100%" x2="75%" y2="0%"><stop offset="23.333333333333336%" stop-color="#00a1e1" stop-opacity="1"></stop><stop offset="76.66666666666666%" stop-color="#0086c4" stop-opacity="1"></stop></linearGradient></defs><defs><linearGradient id="grad2_3" x1="0%" y1="100%" x2="75%" y2="0%"><stop offset="23.333333333333336%" stop-color="#006ca8" stop-opacity="1"></stop><stop offset="76.66666666666666%" stop-color="#0086c4" stop-opacity="1"></stop></linearGradient></defs><defs><linearGradient id="grad2_4" x1="0%" y1="100%" x2="75%" y2="0%"><stop offset="23.333333333333336%" stop-color="#006ca8" stop-opacity="1"></stop><stop offset="76.66666666666666%" stop-color="#00538d" stop-opacity="1"></stop></linearGradient></defs><defs><linearGradient id="grad2_5" x1="0%" y1="100%" x2="75%" y2="0%"><stop offset="23.333333333333336%" stop-color="#003c72" stop-opacity="1"></stop><stop offset="76.66666666666666%" stop-color="#00538d" stop-opacity="1"></stop></linearGradient></defs><defs><linearGradient id="grad2_6" x1="0%" y1="100%" x2="75%" y2="0%"><stop offset="23.333333333333336%" stop-color="#003c72" stop-opacity="1"></stop><stop offset="76.66666666666666%" stop-color="#002658" stop-opacity="1"></stop></linearGradient></defs><defs><linearGradient id="grad2_7" x1="0%" y1="100%" x2="75%" y2="0%"><stop offset="23.333333333333336%" stop-color="#000000" stop-opacity="1"></stop><stop offset="76.66666666666666%" stop-color="#002658" stop-opacity="1"></stop></linearGradient></defs><g transform="translate(900, 675)"><path d="M-337.5 0C-331.8 -64.4 -326 -128.7 -292.3 -168.8C-258.6 -208.8 -196.9 -224.5 -143.5 -248.5C-90.1 -272.6 -45.1 -305.1 0 -337.5L0 0Z" fill="#001d4c"></path><path d="M-295.3 0C-290.3 -56.3 -285.3 -112.6 -255.7 -147.7C-226.2 -182.7 -172.3 -196.4 -125.6 -217.5C-78.9 -238.5 -39.4 -266.9 0 -295.3L0 0Z" fill="#003165"></path><path d="M-253.1 0C-248.8 -48.3 -244.5 -96.5 -219.2 -126.6C-193.9 -156.6 -147.7 -168.4 -107.6 -186.4C-67.6 -204.5 -33.8 -228.8 0 -253.1L0 0Z" fill="#00477f"></path><path d="M-210.9 0C-207.3 -40.2 -203.8 -80.5 -182.7 -105.5C-161.6 -130.5 -123 -140.3 -89.7 -155.3C-56.3 -170.4 -28.2 -190.7 0 -210.9L0 0Z" fill="#00609a"></path><path d="M-168.7 0C-165.9 -32.2 -163 -64.4 -146.1 -84.4C-129.3 -104.4 -98.4 -112.2 -71.8 -124.3C-45.1 -136.3 -22.5 -152.5 0 -168.7L0 0Z" fill="#0079b6"></path><path d="M-126.6 0C-124.4 -24.1 -122.3 -48.3 -109.6 -63.3C-97 -78.3 -73.8 -84.2 -53.8 -93.2C-33.8 -102.2 -16.9 -114.4 0 -126.6L0 0Z" fill="#0094d3"></path><path d="M-84.4 0C-82.9 -16.1 -81.5 -32.2 -73.1 -42.2C-64.6 -52.2 -49.2 -56.1 -35.9 -62.1C-22.5 -68.2 -11.3 -76.3 0 -84.4L0 0Z" fill="#00aff0"></path><path d="M-42.2 0C-41.5 -8 -40.8 -16.1 -36.5 -21.1C-32.3 -26.1 -24.6 -28.1 -17.9 -31.1C-11.3 -34.1 -5.6 -38.1 0 -42.2L0 0Z" fill="#00bdff"></path></g><g transform="translate(0, 0)"><path d="M337.5 0C329 59.5 320.4 119 292.3 168.7C264.2 218.5 216.5 258.4 164.5 284.9C112.5 311.4 56.3 324.5 0 337.5L0 0Z" fill="#001d4c"></path><path d="M295.3 0C287.8 52.1 280.4 104.1 255.7 147.7C231.1 191.2 189.4 226.1 143.9 249.3C98.5 272.5 49.2 283.9 0 295.3L0 0Z" fill="#003165"></path><path d="M253.1 0C246.7 44.6 240.3 89.3 219.2 126.6C198.1 163.9 162.4 193.8 123.4 213.7C84.4 233.6 42.2 243.3 0 253.1L0 0Z" fill="#00477f"></path><path d="M210.9 0C205.6 37.2 200.3 74.4 182.7 105.5C165.1 136.5 135.3 161.5 102.8 178.1C70.3 194.6 35.2 202.8 0 210.9L0 0Z" fill="#00609a"></path><path d="M168.8 0C164.5 29.8 160.2 59.5 146.1 84.4C132.1 109.2 108.2 129.2 82.3 142.5C56.3 155.7 28.1 162.2 0 168.8L0 0Z" fill="#0079b6"></path><path d="M126.6 0C123.4 22.3 120.2 44.6 109.6 63.3C99.1 81.9 81.2 96.9 61.7 106.8C42.2 116.8 21.1 121.7 0 126.6L0 0Z" fill="#0094d3"></path><path d="M84.4 0C82.2 14.9 80.1 29.8 73.1 42.2C66 54.6 54.1 64.6 41.1 71.2C28.1 77.9 14.1 81.1 0 84.4L0 0Z" fill="#00aff0"></path><path d="M42.2 0C41.1 7.4 40.1 14.9 36.5 21.1C33 27.3 27.1 32.3 20.6 35.6C14.1 38.9 7 40.6 0 42.2L0 0Z" fill="#00bdff"></path></g></svg>